# xmcd
#
# Track frame offsets:
#	150
#	13634
#	29076
#	46441
#	60327
#
# Disc length: 1044 seconds
#
# Revision: 1
# Processed by: cddbd v1.5.2PL0 Copyright (c) Steve Scherf et al.
# Submitted via: audiograbber 1.83.01
#
DISCID=3a041205
DTITLE=Morgan Frazier - Yellow Brick Road
DYEAR=2013
DGENRE=Country
TTITLE0=Yellow Brick Road
TTITLE1=Cowboys Ride
TTITLE2=Love Letters
TTITLE3=Halo
TTITLE4=Part Of My Show
EXTD=
EXTT0=
EXTT1=
EXTT2=
EXTT3=
EXTT4=
PLAYORDER=
